<?xml version="1.0" encoding="UTF-8" standalone="no"?>
<!DOCTYPE svg PUBLIC "-//W3C//DTD SVG 1.1//EN"
 "http://www.w3.org/Graphics/SVG/1.1/DTD/svg11.dtd">
<!-- Generated by graphviz version 2.42.3 (20191010.1750)
 -->
<!-- Title: G Pages: 1 -->
<svg width="134pt" height="260pt"
 viewBox="0.00 0.00 134.00 260.00" xmlns="http://www.w3.org/2000/svg" xmlns:xlink="http://www.w3.org/1999/xlink">
<g id="graph0" class="graph" transform="scale(1 1) rotate(0) translate(4 256)">
<title>G</title>
<polygon fill="white" stroke="transparent" points="-4,4 -4,-256 130,-256 130,4 -4,4"/>
<!-- aa -->
<g id="node1" class="node">
<title>aa</title>
<ellipse fill="none" stroke="black" cx="27" cy="-234" rx="27" ry="18"/>
<text text-anchor="middle" x="27" y="-229.8" font-family="Times,serif" font-size="14.00">aa</text>
</g>
<!-- bb -->
<g id="node2" class="node">
<title>bb</title>
<ellipse fill="none" stroke="black" cx="27" cy="-162" rx="27" ry="18"/>
<text text-anchor="middle" x="27" y="-157.8" font-family="Times,serif" font-size="14.00">bb</text>
</g>
<!-- aa&#45;&gt;bb -->
<g id="edge4" class="edge">
<title>aa&#45;&gt;bb</title>
<path fill="none" stroke="red" d="M27,-215.7C27,-207.98 27,-198.71 27,-190.11"/>
<polygon fill="red" stroke="red" points="30.5,-190.1 27,-180.1 23.5,-190.1 30.5,-190.1"/>
</g>
<!-- cc -->
<g id="node3" class="node">
<title>cc</title>
<ellipse fill="none" stroke="black" cx="27" cy="-90" rx="27" ry="18"/>
<text text-anchor="middle" x="27" y="-85.8" font-family="Times,serif" font-size="14.00">cc</text>
</g>
<!-- bb&#45;&gt;cc -->
<g id="edge5" class="edge">
<title>bb&#45;&gt;cc</title>
<path fill="none" stroke="red" d="M27,-143.7C27,-135.98 27,-126.71 27,-118.11"/>
<polygon fill="red" stroke="red" points="30.5,-118.1 27,-108.1 23.5,-118.1 30.5,-118.1"/>
</g>
<!-- Aaa -->
<g id="node4" class="node">
<title>Aaa</title>
<ellipse fill="none" stroke="pink" cx="99" cy="-234" rx="27" ry="18"/>
<text text-anchor="middle" x="99" y="-229.8" font-family="Times,serif" font-size="14.00">Aaa</text>
</g>
<!-- Abb -->
<g id="node5" class="node">
<title>Abb</title>
<ellipse fill="none" stroke="violet" cx="99" cy="-162" rx="27" ry="18"/>
<text text-anchor="middle" x="99" y="-157.8" font-family="Times,serif" font-size="14.00">Abb</text>
</g>
<!-- Aaa&#45;&gt;Abb -->
<g id="edge1" class="edge">
<title>Aaa:c&#45;&gt;Abb</title>
<path fill="none" stroke="red" d="M99,-215.7C99,-207.98 99,-198.71 99,-190.11"/>
<polygon fill="red" stroke="red" points="102.5,-190.1 99,-180.1 95.5,-190.1 102.5,-190.1"/>
</g>
<!-- Acc -->
<g id="node6" class="node">
<title>Acc</title>
<ellipse fill="none" stroke="black" cx="99" cy="-90" rx="27" ry="18"/>
<text text-anchor="middle" x="99" y="-85.8" font-family="Times,serif" font-size="14.00">Acc</text>
</g>
<!-- Abb&#45;&gt;Acc -->
<g id="edge2" class="edge">
<title>Abb&#45;&gt;Acc</title>
<path fill="none" stroke="red" d="M99,-143.7C99,-135.98 99,-126.71 99,-118.11"/>
<polygon fill="red" stroke="red" points="102.5,-118.1 99,-108.1 95.5,-118.1 102.5,-118.1"/>
</g>
<!-- E -->
<g id="node7" class="node">
<title>E</title>
<ellipse fill="none" stroke="black" cx="99" cy="-18" rx="27" ry="18"/>
<text text-anchor="middle" x="99" y="-13.8" font-family="Times,serif" font-size="14.00">E</text>
</g>
<!-- Acc&#45;&gt;E -->
<g id="edge3" class="edge">
<title>Acc&#45;&gt;E</title>
<path fill="none" stroke="red" d="M99,-71.7C99,-63.98 99,-54.71 99,-46.11"/>
<polygon fill="red" stroke="red" points="102.5,-46.1 99,-36.1 95.5,-46.1 102.5,-46.1"/>
</g>
</g>
</svg>
