<?xml version="1.0" encoding="UTF-8" standalone="no"?>
<!DOCTYPE svg PUBLIC "-//W3C//DTD SVG 1.1//EN"
 "http://www.w3.org/Graphics/SVG/1.1/DTD/svg11.dtd">
<!-- Generated by graphviz version 2.42.3 (20191010.1750)
 -->
<!-- Title: G Pages: 1 -->
<svg width="277pt" height="116pt"
 viewBox="0.00 0.00 276.76 116.00" xmlns="http://www.w3.org/2000/svg" xmlns:xlink="http://www.w3.org/1999/xlink">
<g id="graph0" class="graph" transform="scale(1 1) rotate(0) translate(4 112)">
<title>G</title>
<polygon fill="white" stroke="transparent" points="-4,4 -4,-112 272.76,-112 272.76,4 -4,4"/>
<!-- node1 -->
<g id="node1" class="node">
<title>node1</title>
<ellipse fill="none" stroke="black" cx="31.72" cy="-90" rx="31.94" ry="18"/>
<text text-anchor="middle" x="31.72" y="-85.8" font-family="Times,serif" font-size="14.00">node1</text>
</g>
<!-- node2 -->
<g id="node2" class="node">
<title>node2</title>
<ellipse fill="none" stroke="black" cx="31.72" cy="-18" rx="31.94" ry="18"/>
<text text-anchor="middle" x="31.72" y="-13.8" font-family="Times,serif" font-size="14.00">node2</text>
</g>
<!-- node1&#45;&gt;node2 -->
<g id="edge3" class="edge">
<title>node1&#45;&gt;node2</title>
<path fill="none" stroke="black" d="M31.72,-71.7C31.72,-63.98 31.72,-54.71 31.72,-46.11"/>
<polygon fill="black" stroke="black" points="35.22,-46.1 31.72,-36.1 28.22,-46.1 35.22,-46.1"/>
</g>
<!-- A_node1 -->
<g id="node3" class="node">
<title>A_node1</title>
<ellipse fill="none" stroke="black" cx="123.72" cy="-90" rx="42.55" ry="18"/>
<text text-anchor="middle" x="123.72" y="-85.8" font-family="Times,serif" font-size="14.00">A_node1</text>
</g>
<!-- A_node2 -->
<g id="node4" class="node">
<title>A_node2</title>
<ellipse fill="none" stroke="black" cx="123.72" cy="-18" rx="42.55" ry="18"/>
<text text-anchor="middle" x="123.72" y="-13.8" font-family="Times,serif" font-size="14.00">A_node2</text>
</g>
<!-- A_node1&#45;&gt;A_node2 -->
<g id="edge1" class="edge">
<title>A_node1&#45;&gt;A_node2</title>
<path fill="none" stroke="black" d="M123.72,-71.7C123.72,-63.98 123.72,-54.71 123.72,-46.11"/>
<polygon fill="black" stroke="black" points="127.22,-46.1 123.72,-36.1 120.22,-46.1 127.22,-46.1"/>
</g>
<!-- B_node1 -->
<g id="node5" class="node">
<title>B_node1</title>
<ellipse fill="none" stroke="black" cx="226.72" cy="-90" rx="42.08" ry="18"/>
<text text-anchor="middle" x="226.72" y="-85.8" font-family="Times,serif" font-size="14.00">B_node1</text>
</g>
<!-- B_node2 -->
<g id="node6" class="node">
<title>B_node2</title>
<ellipse fill="none" stroke="black" cx="226.72" cy="-18" rx="42.08" ry="18"/>
<text text-anchor="middle" x="226.72" y="-13.8" font-family="Times,serif" font-size="14.00">B_node2</text>
</g>
<!-- B_node1&#45;&gt;B_node2 -->
<g id="edge2" class="edge">
<title>B_node1&#45;&gt;B_node2</title>
<path fill="none" stroke="black" d="M226.72,-71.7C226.72,-63.98 226.72,-54.71 226.72,-46.11"/>
<polygon fill="black" stroke="black" points="230.22,-46.1 226.72,-36.1 223.22,-46.1 230.22,-46.1"/>
</g>
</g>
</svg>
