<?xml version="1.0" encoding="UTF-8" standalone="no"?>
<!DOCTYPE svg PUBLIC "-//W3C//DTD SVG 1.1//EN"
 "http://www.w3.org/Graphics/SVG/1.1/DTD/svg11.dtd">
<!-- Generated by graphviz version 2.44.1 (20200629.0846)
 -->
<!-- Title: G Pages: 1 -->
<svg width="279pt" height="116pt"
 viewBox="0.00 0.00 278.74 116.00" xmlns="http://www.w3.org/2000/svg" xmlns:xlink="http://www.w3.org/1999/xlink">
<g id="graph0" class="graph" transform="scale(1 1) rotate(0) translate(4 112)">
<title>G</title>
<polygon fill="white" stroke="transparent" points="-4,4 -4,-112 274.74,-112 274.74,4 -4,4"/>
<!-- node1 -->
<g id="node1" class="node">
<title>node1</title>
<ellipse fill="none" stroke="black" cx="32.5" cy="-90" rx="32.49" ry="18"/>
<text text-anchor="middle" x="32.5" y="-86.3" font-family="Times,serif" font-size="14.00">node1</text>
</g>
<!-- node2 -->
<g id="node2" class="node">
<title>node2</title>
<ellipse fill="none" stroke="black" cx="32.5" cy="-18" rx="32.49" ry="18"/>
<text text-anchor="middle" x="32.5" y="-14.3" font-family="Times,serif" font-size="14.00">node2</text>
</g>
<!-- node1&#45;&gt;node2 -->
<g id="edge3" class="edge">
<title>node1&#45;&gt;node2</title>
<path fill="none" stroke="black" d="M32.5,-71.7C32.5,-63.98 32.5,-54.71 32.5,-46.11"/>
<polygon fill="black" stroke="black" points="36,-46.1 32.5,-36.1 29,-46.1 36,-46.1"/>
</g>
<!-- A_node1 -->
<g id="node3" class="node">
<title>A_node1</title>
<ellipse fill="none" stroke="black" cx="125.5" cy="-90" rx="42.79" ry="18"/>
<text text-anchor="middle" x="125.5" y="-86.3" font-family="Times,serif" font-size="14.00">A_node1</text>
</g>
<!-- A_node2 -->
<g id="node4" class="node">
<title>A_node2</title>
<ellipse fill="none" stroke="black" cx="125.5" cy="-18" rx="42.79" ry="18"/>
<text text-anchor="middle" x="125.5" y="-14.3" font-family="Times,serif" font-size="14.00">A_node2</text>
</g>
<!-- A_node1&#45;&gt;A_node2 -->
<g id="edge1" class="edge">
<title>A_node1&#45;&gt;A_node2</title>
<path fill="none" stroke="black" d="M125.5,-71.7C125.5,-63.98 125.5,-54.71 125.5,-46.11"/>
<polygon fill="black" stroke="black" points="129,-46.1 125.5,-36.1 122,-46.1 129,-46.1"/>
</g>
<!-- B_node1 -->
<g id="node5" class="node">
<title>B_node1</title>
<ellipse fill="none" stroke="black" cx="228.5" cy="-90" rx="42.49" ry="18"/>
<text text-anchor="middle" x="228.5" y="-86.3" font-family="Times,serif" font-size="14.00">B_node1</text>
</g>
<!-- B_node2 -->
<g id="node6" class="node">
<title>B_node2</title>
<ellipse fill="none" stroke="black" cx="228.5" cy="-18" rx="42.49" ry="18"/>
<text text-anchor="middle" x="228.5" y="-14.3" font-family="Times,serif" font-size="14.00">B_node2</text>
</g>
<!-- B_node1&#45;&gt;B_node2 -->
<g id="edge2" class="edge">
<title>B_node1&#45;&gt;B_node2</title>
<path fill="none" stroke="black" d="M228.5,-71.7C228.5,-63.98 228.5,-54.71 228.5,-46.11"/>
<polygon fill="black" stroke="black" points="232,-46.1 228.5,-36.1 225,-46.1 232,-46.1"/>
</g>
</g>
</svg>
